<?xml version="1.0" encoding="UTF-8" standalone="no"?>
<svg
   xmlns:dc="http://purl.org/dc/elements/1.1/"
   xmlns:cc="http://creativecommons.org/ns#"
   xmlns:rdf="http://www.w3.org/1999/02/22-rdf-syntax-ns#"
   xmlns:svg="http://www.w3.org/2000/svg"
   xmlns="http://www.w3.org/2000/svg"
   width="256pt"
   height="256pt"
   viewBox="0 0 256 256"
   version="1.1"
   id="svg9">
  <metadata
     id="metadata15">
    <rdf:RDF>
      <cc:Work
         rdf:about="">
        <dc:format>image/svg+xml</dc:format>
        <dc:type
           rdf:resource="http://purl.org/dc/dcmitype/StillImage" />
        <dc:title></dc:title>
      </cc:Work>
    </rdf:RDF>
  </metadata>
  <defs
     id="defs13" />
  <path
     style="fill:#fc5652;fill-opacity:1;fill-rule:nonzero;stroke:none"
     d="m 128.12891,-0.164062 c -34.421879,0 -66.050785,13.121093 -90.445316,37.523437 C 13.289062,61.765625 0.171875,93.40625 0.171875,127.84375 c 0,34.4375 13.117187,66.07812 37.511719,90.48047 20.484375,20.49219 46.089844,33.03125 75.062496,36.76172 11.37891,1.46875 28.82032,0.72265 41.25391,-1.75391 44.76172,-8.92187 83.00391,-43.60547 96.40625,-87.4375 14.0625,-45.98437 2.00391,-94.687499 -31.82813,-128.535155 C 194.18359,12.957031 162.55469,-0.164062 128.12891,-0.164062 Z M 126.96484,9.875 c 18.51953,-0.167969 37.02344,4.027344 53.89063,12.480469 23.11328,11.585937 41.14062,29.617187 52.72265,52.742187 16.64454,33.242184 16.64454,72.250004 0,105.488284 -5.80859,11.60156 -11.59765,19.7539 -20.8125,29.33203 -19.5039,20.26953 -45.32812,32.625 -74.04687,35.43359 -21.42187,2.09375 -43.527344,-2.10547 -63.3125,-12.01953 C 63.8125,227.51953 55.660156,221.73047 46.085938,212.51172 9.15625,176.94531 -0.355469,121.10156 22.683594,75.097656 36.53125,47.445312 60.320312,26.527344 89.457031,16.382812 101.61719,12.148438 114.29688,9.988281 126.96484,9.875 Z m 0,0"
     id="path2" />
  <path
     fill="#000000"
     d="m 129.83053,116.67173 c -0.41463,0 -0.84097,-0.0117 -1.26062,-0.0368 -5.55239,0.30763 -10.41931,-1.43115 -14.09248,-4.87694 -0.30094,-0.2859 -0.58851,-0.57347 -0.87441,-0.87441 -0.30596,0.33104 -0.63031,0.6604 -0.96636,0.98141 -3.77349,3.51434 -8.74239,5.15448 -14.512132,4.74653 -3.457499,-0.24409 -6.063998,-3.25352 -5.813212,-6.70935 0.235738,-3.4575 3.164915,-6.0222 6.706009,-5.81823 2.857285,0.18726 4.271715,-0.69049 5.029085,-1.38935 2.59313,-2.38581 3.23514,-7.54029 3.25353,-9.167054 0.0184,-3.452483 2.8205,-6.246236 6.27968,-6.246236 3.42238,0 6.20611,2.741924 6.27967,6.14425 v 0 c 0,0.01505 0,0.02842 0,0.04013 v 0 0.005 c 0,0 0,0 0,0.0067 v 0 0.005 0 0.0067 0.005 0 0 c 0,0.0067 0,0.01839 0,0.01839 0,0.005 0,0.0117 0,0.01839 0.0184,1.564903 0.65371,6.66923 3.24684,9.07008 0.76573,0.70889 2.19855,1.6368 5.09931,1.45122 0.27586,-0.0184 0.55173,-0.0184 0.83929,0 2.87066,0.18725 4.27172,-0.69384 5.03244,-1.38936 2.59479,-2.3858 3.23848,-7.540287 3.24851,-9.168722 0.0251,-3.452483 2.82217,-6.247908 6.28134,-6.247908 3.4341,0 6.22451,2.755299 6.27968,6.177688 v 0 c 0,0.005 0,0.005 0,0.01505 0,0 0,0 0,0.005 v 0 0 c 0,0 0,0 0,0.0067 0,0.005 0,0.01839 0,0.02508 0,0.005 0,0.0117 0,0.01839 v 0 0 c 0,0.0067 0,0.0117 0,0.01839 0.0251,1.563231 0.65538,6.669232 3.24851,9.066742 0.76072,0.71223 2.2019,1.64014 5.10265,1.45288 3.40902,-0.25747 6.43349,2.41089 6.6592,5.87508 0.20899,3.46084 -2.4159,6.44519 -5.87507,6.66588 -5.70287,0.37451 -10.75035,-1.32248 -14.51548,-4.86357 -0.30094,-0.28088 -0.5952,-0.57012 -0.87608,-0.87106 -0.30763,0.33103 -0.63198,0.65873 -0.96302,0.97806 -3.40901,3.21173 -7.81782,4.85521 -12.83688,4.85521 z"
     id="path844"
     style="stroke-width:1.6719;fill:#f6c574;fill-opacity:1" />
  <path
     fill="#000000"
     d="m 158.60735,161.44534 v 27.28214 c 0,6.91166 -5.64936,12.55935 -12.56102,12.55935 h -3.01779 c 0,5.19962 -4.21821,9.41951 -9.41951,9.41951 h -10.03142 c -5.19963,0 -9.41952,-4.21821 -9.41952,-9.41951 h -3.02113 c -6.90831,0 -12.559345,-5.64769 -12.559345,-12.55935 v -27.28214 c -19.506113,-10.66508 -32.779364,-31.37663 -32.779364,-55.1344 0,-34.626819 28.169922,-62.795069 62.796739,-62.795069 34.62348,0 62.79674,28.16825 62.79674,62.795069 -0.002,23.75777 -13.27158,44.46932 -32.78438,55.1344 z m 20.22336,-55.13942 c 0,-27.700113 -22.5356,-50.237389 -50.23739,-50.237389 -27.70012,0 -50.235721,22.535604 -50.235721,50.237389 0,27.69678 22.535601,50.23907 50.235721,50.23907 27.70179,0 50.23739,-22.53226 50.23739,-50.23907 z"
     id="path846"
     style="stroke-width:1.6719;fill:#fc5652;fill-opacity:1" />
</svg>
